<svg width="100%" height="100%" id="svg" viewBox="0 0 1440 600" xmlns="http://www.w3.org/2000/svg">
  <path d="M 0,600 C 0,600 0,300 0,300 C 65.07824005891017,321.5486008836524 130.15648011782034,343.09720176730485 191,333 C 251.84351988217966,322.90279823269515 308.4523195876289,281.15979381443293 360,259 C 411.5476804123711,236.84020618556707 458.0342415316643,234.2636229749632 526,252 C 593.9657584683357,269.7363770250368 683.4107142857143,307.78571428571433 748,310 C 812.5892857142857,312.21428571428567 852.3229013254786,278.59351988217963 910,283 C 967.6770986745214,287.40648011782037 1043.2976804123712,329.84020618556696 1102,326 C 1160.7023195876288,322.15979381443304 1202.4863770250367,272.0456553755523 1256,260 C 1309.5136229749633,247.95434462444769 1374.7568114874816,273.97717231222384 1440,300 C 1440,300 1440,600 1440,600 Z" stroke="none" stroke-width="0" fill="#261b3488" class="transition-all duration-300 ease-in-out delay-150 path-1"></path>
  <path d="M 0,600 C 0,600 0,450 0,450 C 71.46575846833579,472.0189617083947 142.93151693667158,494.0379234167894 196,485 C 249.06848306332842,475.9620765832106 283.7396907216495,435.8672680412371 339,415 C 394.2603092783505,394.1327319587629 470.10972017673055,392.49300441826216 544,417 C 617.8902798232695,441.50699558173784 689.8214285714287,492.16071428571433 747,501 C 804.1785714285713,509.83928571428567 846.6045655375552,476.8641384388807 910,460 C 973.3954344624448,443.1358615611193 1057.7603092783504,442.38273195876286 1110,453 C 1162.2396907216496,463.61726804123714 1182.3541973490428,485.6049337260677 1232,487 C 1281.6458026509572,488.3950662739323 1360.8229013254786,469.1975331369662 1440,450 C 1440,450 1440,600 1440,600 Z" stroke="none" stroke-width="0" fill="#261b34ff" class="transition-all duration-300 ease-in-out delay-150 path-2"></path>
</svg>