<svg width="100%" height="100%" id="svg" viewBox="0 0 1440 700" xmlns="http://www.w3.org/2000/svg" class="transition duration-300 ease-in-out delay-150">
  <path d="M 0,700 C 0,700 0,140 0,140 C 61.625552282768794,144.82713549337262 123.25110456553759,149.65427098674522 172,164 C 220.7488954344624,178.34572901325478 256.6211340206185,202.21005154639175 327,190 C 397.3788659793815,177.78994845360825 502.2643593519882,129.5055228276878 560,118 C 617.7356406480118,106.49447717231222 628.3214285714286,131.76785714285714 688,132 C 747.6785714285714,132.23214285714286 856.4499263622976,107.42304860088367 917,108 C 977.5500736377024,108.57695139911633 989.8788659793813,134.53994845360822 1046,143 C 1102.1211340206187,151.46005154639178 1202.0346097201768,142.41715758468337 1275,139 C 1347.9653902798232,135.58284241531663 1393.9826951399116,137.79142120765832 1440,140 C 1440,140 1440,700 1440,700 Z" stroke="none" stroke-width="0" fill="#261b3444" class="transition-all duration-300 ease-in-out delay-150 path-0"></path>
  <path d="M 0,700 C 0,700 0,280 0,280 C 60.52687776141383,266.15758468335787 121.05375552282766,252.31516936671576 191,246 C 260.94624447717234,239.68483063328424 340.3118556701031,240.89690721649487 393,238 C 445.6881443298969,235.10309278350513 471.69882179675983,228.09720176730485 521,251 C 570.3011782032402,273.90279823269515 642.8928571428572,326.71428571428567 706,327 C 769.1071428571428,327.28571428571433 822.7297496318114,275.04565537555226 888,267 C 953.2702503681886,258.95434462444774 1030.1881443298969,295.10309278350513 1101,315 C 1171.8118556701031,334.89690721649487 1236.517673048601,338.5419734904271 1292,330 C 1347.482326951399,321.4580265095729 1393.7411634756995,300.7290132547864 1440,280 C 1440,280 1440,700 1440,700 Z" stroke="none" stroke-width="0" fill="#261b3466" class="transition-all duration-300 ease-in-out delay-150 path-1"></path>
  <path d="M 0,700 C 0,700 0,420 0,420 C 64.20250368188513,434.66126656848303 128.40500736377027,449.3225331369661 191,442 C 253.59499263622973,434.6774668630339 314.58247422680404,405.37113402061857 376,396 C 437.41752577319596,386.62886597938143 499.2650957290133,397.1929307805596 555,405 C 610.7349042709867,412.8070692194404 660.3571428571429,417.8571428571429 715,413 C 769.6428571428571,408.1428571428571 829.3063328424153,393.37849779086895 889,403 C 948.6936671575847,412.62150220913105 1008.4175257731958,446.62886597938143 1070,460 C 1131.5824742268042,473.37113402061857 1195.0235640648011,466.10603829160533 1257,456 C 1318.9764359351989,445.89396170839467 1379.4882179675994,432.94698085419736 1440,420 C 1440,420 1440,700 1440,700 Z" stroke="none" stroke-width="0" fill="#261b3488" class="transition-all duration-300 ease-in-out delay-150 path-2"></path>
  <path d="M 0,700 C 0,700 0,560 0,560 C 65.81977172312224,563.4357511045655 131.6395434462445,566.8715022091311 188,579 C 244.3604565537555,591.1284977908689 291.2615979381443,611.9497422680412 356,601 C 420.7384020618557,590.0502577319588 503.31406480117835,547.3295287187041 560,550 C 616.6859351988217,552.6704712812959 647.4821428571429,600.7321428571428 698,595 C 748.5178571428571,589.2678571428572 818.7573637702504,529.7418998527247 896,523 C 973.2426362297496,516.2581001472753 1057.4884020618556,562.3002577319586 1110,566 C 1162.5115979381444,569.6997422680414 1183.289027982327,531.0570692194403 1233,523 C 1282.710972017673,514.9429307805597 1361.3554860088366,537.4714653902798 1440,560 C 1440,560 1440,700 1440,700 Z" stroke="none" stroke-width="0" fill="#261b34ff" class="transition-all duration-300 ease-in-out delay-150 path-3"></path>
</svg>