<svg viewBox="0 0 62 62" xmlns="http://www.w3.org/2000/svg">
  <style>.brick{stroke:#000;fill:#bb3b6b}</style>
  <g class="layer">
    <g class="brick">
      <path d="m35.38 30.28-7.94.97-7.94.97-7.94.98v9.6l2.97 2.68 7.94-.98 7.94-.97 7.94-.98v-9.6l-2.97-2.67zM14.53 45.48v-9.6M11.56 33.2l2.97 2.68" stroke-width=".35" />
      <path d="M14.47 32.36v1.7a2.54.86.164 0 0 .16.29 2.54.86.164 0 0 3.28.51 2.54.86.164 0 0 1.65-.8v-1.7h-5.09z" stroke-width=".35" />
      <path d="M19.4 32.06a2.54.86.164 0 1-1.49 1.1 2.54.86.164 0 1-3.28-.51 2.54.86.164 0 1 1.49-1.1 2.54.86.164 0 1 3.28.51zM22.41 31.38v1.7a2.54.86.164 0 0 .16.29 2.54.86.164 0 0 3.28.51 2.54.86.164 0 0 1.65-.8v-1.7h-5.09z" stroke-width=".35" />
      <path d="M27.34 31.09a2.54.86.164 0 1-1.49 1.09 2.54.86.164 0 1-3.28-.51 2.54.86.164 0 1 1.5-1.09 2.54.86.164 0 1 3.27.51zM30.35 30.41v1.7a2.54.86.164 0 0 .16.29 2.54.86.164 0 0 3.28.51 2.54.86.164 0 0 1.65-.8v-1.7h-5.09z" stroke-width=".35" />
      <path d="M35.28 30.11a2.54.86.164 0 1-1.49 1.1 2.54.86.164 0 1-3.28-.51 2.54.86.164 0 1 1.5-1.1 2.54.86.164 0 1 3.27.51zM14.53 35.88l23.82-2.93" stroke-width=".35" />
    </g>
    <g id="svg-brick-top" class="brick">
      <path d="m44.42 19.77-7.94.97-7.94.97-7.94.98v9.6l2.97 2.68 7.94-.98 7.94-.97 7.94-.98v-9.6l-2.97-2.67zM23.57 34.97v-9.6M20.6 22.69l2.97 2.68" stroke-width=".35" />
      <path d="M23.51 21.85v1.7a2.54.86.164 0 0 .16.29 2.54.86.164 0 0 3.28.51 2.54.86.164 0 0 1.65-.8v-1.7h-5.09z" stroke-width=".35" />
      <path d="M28.44 21.55a2.54.86.164 0 1-1.49 1.1 2.54.86.164 0 1-3.28-.51 2.54.86.164 0 1 1.49-1.1 2.54.86.164 0 1 3.28.51zM31.45 20.87v1.7a2.54.86.164 0 0 .16.29 2.54.86.164 0 0 3.28.51 2.54.86.164 0 0 1.65-.8v-1.7h-5.09z" stroke-width=".35" />
      <path d="M36.38 20.58a2.54.86.164 0 1-1.49 1.09 2.54.86.164 0 1-3.28-.51 2.54.86.164 0 1 1.5-1.09 2.54.86.164 0 1 3.27.51zM39.39 19.9v1.7a2.54.86.164 0 0 .16.29 2.54.86.164 0 0 3.28.51 2.54.86.164 0 0 1.65-.8v-1.7h-5.09z" stroke-width=".35" />
      <path d="M44.32 19.6a2.54.86.164 0 1-1.49 1.1 2.54.86.164 0 1-3.28-.51 2.54.86.164 0 1 1.5-1.1 2.54.86.164 0 1 3.27.51zM23.57 25.37l23.82-2.93" stroke-width=".35" />
    </g>
  </g>
</svg>